<svg xmlns="http://www.w3.org/2000/svg" viewBox="0 0 1200 760" fill="none">
  <defs>
    <linearGradient id="bg" x1="90" y1="54" x2="1080" y2="680" gradientUnits="userSpaceOnUse">
      <stop stop-color="#F6FBFF"/>
      <stop offset="1" stop-color="#D3ECFF"/>
    </linearGradient>
  </defs>
  <rect width="1200" height="760" rx="34" fill="url(#bg)"/>
  <circle cx="192" cy="132" r="118" fill="#DEF4FF"/>
  <circle cx="1012" cy="112" r="144" fill="#CAE8FF" fill-opacity=".66"/>
  <rect x="126" y="158" width="948" height="420" rx="34" fill="#FDFEFF"/>
  <rect x="154" y="188" width="894" height="152" rx="26" fill="#E9F6FF"/>
  <rect x="182" y="220" width="240" height="88" rx="14" fill="#90D7FF"/>
  <rect x="452" y="220" width="240" height="88" rx="14" fill="#90D7FF"/>
  <rect x="722" y="220" width="298" height="88" rx="14" fill="#A8E0FF"/>
  <path d="M126 486h948v92H126z" fill="#C9E7FF"/>
  <path d="M194 486c144 16 370 22 678 18l202 74H126l68-92Z" fill="#A7D6F9"/>
  <path d="M180 564h822" stroke="#F8FBFF" stroke-width="12" stroke-linecap="round" stroke-dasharray="2 22"/>
  <path d="M196 414c116-60 240-88 372-86" stroke="#0079D9" stroke-width="16" stroke-linecap="round"/>
  <path d="M192 414c104-124 238-182 398-198" stroke="#B9E8FF" stroke-width="12" stroke-linecap="round" stroke-dasharray="1 18"/>
  <path d="M154 430h132" stroke="#F9FCFF" stroke-width="24" stroke-linecap="round"/>
</svg>
