<svg xmlns="http://www.w3.org/2000/svg" viewBox="0 0 1200 760" fill="none">
  <defs>
    <linearGradient id="bg" x1="92" y1="52" x2="1084" y2="698" gradientUnits="userSpaceOnUse">
      <stop stop-color="#E5F7FF"/>
      <stop offset="1" stop-color="#E2F1FF"/>
    </linearGradient>
    <linearGradient id="floor" x1="600" y1="452" x2="600" y2="706" gradientUnits="userSpaceOnUse">
      <stop stop-color="#C0E9FF"/>
      <stop offset="1" stop-color="#B7DCF8"/>
    </linearGradient>
  </defs>
  <rect width="1200" height="760" rx="34" fill="url(#bg)"/>
  <circle cx="1024" cy="110" r="136" fill="#D7EEFF"/>
  <rect x="106" y="124" width="988" height="526" rx="40" fill="#FFFFFF"/>
  <rect x="106" y="124" width="988" height="326" rx="40" fill="#F9FCFF"/>
  <rect x="106" y="430" width="988" height="220" rx="0 0 40 40" fill="url(#floor)"/>
  <rect x="214" y="286" width="570" height="180" rx="54" fill="#BCE7FF"/>
  <rect x="252" y="234" width="494" height="118" rx="56" fill="#A9DEFF"/>
  <rect x="296" y="262" width="116" height="80" rx="34" fill="#E0F5FF"/>
  <rect x="548" y="262" width="116" height="80" rx="34" fill="#E0F5FF"/>
  <path d="M814 336 972 540" stroke="#0079D9" stroke-width="18" stroke-linecap="round"/>
  <path d="M930 486h112" stroke="#F9FCFF" stroke-width="24" stroke-linecap="round"/>
  <path d="M812 334c56 20 98 54 136 110" stroke="#B6E7FF" stroke-width="10" stroke-linecap="round" stroke-dasharray="1 18"/>
</svg>
