<svg xmlns="http://www.w3.org/2000/svg" viewBox="0 0 1200 760" fill="none">
  <defs>
    <linearGradient id="bg" x1="98" y1="64" x2="1080" y2="698" gradientUnits="userSpaceOnUse">
      <stop stop-color="#E5F7FF"/>
      <stop offset="1" stop-color="#DFEFFB"/>
    </linearGradient>
    <linearGradient id="floor" x1="600" y1="454" x2="600" y2="712" gradientUnits="userSpaceOnUse">
      <stop stop-color="#C3EAFF"/>
      <stop offset="1" stop-color="#B2DAF8"/>
    </linearGradient>
  </defs>
  <rect width="1200" height="760" rx="34" fill="url(#bg)"/>
  <circle cx="1000" cy="114" r="140" fill="#D7EDFF"/>
  <rect x="114" y="122" width="972" height="532" rx="40" fill="#FFFFFF"/>
  <rect x="114" y="122" width="972" height="332" rx="40" fill="#F9FCFF"/>
  <rect x="114" y="430" width="972" height="224" rx="0 0 40 40" fill="url(#floor)"/>
  <rect x="240" y="214" width="252" height="214" rx="24" fill="#E9F6FF"/>
  <rect x="538" y="214" width="168" height="214" rx="24" fill="#D1EEFF"/>
  <rect x="754" y="214" width="176" height="214" rx="24" fill="#DDF0FF"/>
  <rect x="192" y="524" width="176" height="44" rx="22" fill="#8BCBFF"/>
  <rect x="402" y="504" width="116" height="64" rx="18" fill="#9FD5FF"/>
  <rect x="540" y="472" width="154" height="96" rx="20" fill="#7EC4FB"/>
  <path d="M842 328 956 486" stroke="#0079D9" stroke-width="18" stroke-linecap="round"/>
  <path d="M942 464h94" stroke="#F9FCFF" stroke-width="22" stroke-linecap="round"/>
  <circle cx="840" cy="296" r="16" fill="#FDFEFF"/>
</svg>
